{"title":"Sinners &amp; Saints 2010 DVDrip English Klam","uid":6472891,"size":1681566274,"categoryP":"video","categoryS":"movies","magnet":"?xt=urn:btih:89769f5e4248c77ad64b6c812fb0a044297374a2&amp;dn=Sinners+%26+Saints+2010+DVDrip+English+Klam&amp;tr=udp%3A%2F%2Ftracker.openbittorrent.com%3A80&amp;tr=udp%3A%2F%2Fopen.demonii.com%3A1337&amp;tr=udp%3A%2F%2Ftracker.coppersurfer.tk%3A6969&amp;tr=udp%3A%2F%2Fexodus.desync.com%3A6969","seeders":0,"leechers":0,"uploader":"Klambake","files":-1,"time":1308213407,"description":"With: Johnny Strong, Kevin Phillips and Costas Mandylor\n\nDetective Sean Riley probeert de dood van zijn zoon te verwerken en zich te focussen op zijn vrouw. Geconfronteerd door het feit dat hij waarschijnlijk geschorst wordt, werkt Detective Riley samen met de homicide detective Will Ganz, om een reeks van brute moorden, die de stad flink beschadigd, op te lossen. Al snel komen ze erachter dat er meer aan de hand is, dan dat ze in eerste instantie hadden gedacht.\n\nIn lawless storm ravaged New Orleans, beleaguered Detective Sean Riley is trying to cope with the death of his young son and the abandonment of his wife...\n\n------------------ Dutch Friends ------------------\n\nYou can find my Friends at: http://www.Film-Test.nl \n                    \n------ They got my dutchs subs ---- and more ------\n\nGeneral:\n\nComplete name                    : Sinners &amp; Saints\\Sinners &amp; Saints.avi\nFormat                           : AVI\nFormat/Info                      : Audio Video Interleave\nFile size                        : 1.57 GiB\nDuration                         : 1h 39mn\nOverall bit rate                 : 2 247 Kbps\n\nVideo:\n\nFormat                           : MPEG-4 Visual\nFormat profile                   : Simple@L1\nFormat settings, BVOP            : No\nFormat settings, QPel            : No\nFormat settings, GMC             : No warppoints\nFormat settings, Matrix          : Default (H.263)\nCodec ID                         : DX50\nCodec ID/Hint                    : DivX 5\nDuration                         : 1h 39mn\nBit rate                         : 1 788 Kbps\nWidth                            : 720 pixels\nHeight                           : 304 pixels\nDisplay aspect ratio             : 2.35:1\nFrame rate                       : 25.000 fps\nColor space                      : YUV\nChroma subsampling               : 4:2:0\nBit depth                        : 8 bits\nScan type                        : Progressive\nBits/(Pixel*Frame)               : 0.327\nStream size                      : 1.25 GiB (80%)\nWriting library                  : Lavc52.0.0\n\nAudio:\n\nFormat                           : AC-3\nFormat/Info                      : Audio Coding 3\nMode extension                   : CM (complete main)\nCodec ID                         : 2000\nDuration                         : 1h 39mn\nBit rate mode                    : Constant\nBit rate                         : 448 Kbps\nChannel(s)                       : 6 channels\nChannel positions                : Front: L C R, Side: L R, LFE\nSampling rate                    : 48.0 KHz\nBit depth                        : 16 bits\nStream size                      : 320 MiB (20%)\nAlignment                        : Aligned on interleaves\nInterleave, duration             : 32 ms (0.80 video frame)\nInterleave, preload duration     : 736 ms\n","torrent":{"xt":"urn:btih:89769f5e4248c77ad64b6c812fb0a044297374a2","amp;dn":"Sinners+%26+Saints+2010+DVDrip+English+Klam","amp;tr":["udp%3A%2F%2Ftracker.openbittorrent.com%3A80","udp%3A%2F%2Fopen.demonii.com%3A1337","udp%3A%2F%2Ftracker.coppersurfer.tk%3A6969","udp%3A%2F%2Fexodus.desync.com%3A6969"],"infoHash":"89769f5e4248c77ad64b6c812fb0a044297374a2","infoHashBuffer":{"type":"Buffer","data":[137,118,159,94,66,72,199,122,214,75,108,129,47,176,160,68,41,115,116,162]},"announce":[],"urlList":[]}}